<svg xmlns="http://www.w3.org/2000/svg" viewBox="0 0 16 16" width="16" height="16" shape-rendering="crispEdges">
  <rect x="3" y="0" width="10" height="1" fill="#4A90E2"/>
  <rect x="2" y="1" width="12" height="1" fill="#4A90E2"/>
  <rect x="1" y="2" width="14" height="1" fill="#4A90E2"/>
  <rect x="0" y="3" width="16" height="10" fill="#4A90E2"/>
  <rect x="1" y="13" width="14" height="1" fill="#4A90E2"/>
  <rect x="2" y="14" width="12" height="1" fill="#4A90E2"/>
  <rect x="3" y="15" width="10" height="1" fill="#4A90E2"/>

  <g fill="#FFFFFF">
    <rect x="3" y="4" width="2" height="1"/>
    <rect x="8" y="4" width="2" height="1"/>
    <rect x="2" y="5" width="4" height="1"/>
    <rect x="7" y="5" width="4" height="1"/>
    <rect x="4" y="6" width="2" height="2"/>
    <rect x="9" y="6" width="2" height="2"/>
    <rect x="2" y="8" width="4" height="1"/>
    <rect x="7" y="8" width="4" height="1"/>
    <rect x="3" y="9" width="2" height="1"/>
    <rect x="8" y="9" width="2" height="1"/>
  </g>

  <g fill="#1E293B">
    <rect x="2" y="6" width="2" height="2"/>
    <rect x="7" y="6" width="2" height="2"/>
  </g>
</svg>
